<svg width="420" height="531" viewBox="0 0 420 531" fill="none" xmlns="http://www.w3.org/2000/svg">
<rect x="39" width="381" height="495" rx="45" fill="url(#paint0_linear_406_180)" fill-opacity="0.3"/>
<rect y="36" width="374" height="495" rx="45" fill="url(#paint1_linear_406_180)"/>
<g filter="url(#filter0_d_406_180)">
<rect x="96" y="120" width="260" height="35" rx="17.5" fill="white"/>
</g>
<g filter="url(#filter1_d_406_180)">
<rect x="23" y="178" width="313" height="35" rx="17.5" fill="white"/>
</g>
<g filter="url(#filter2_d_406_180)">
<rect x="23" y="474" width="333" height="42" rx="21" fill="white"/>
<rect x="23.5" y="474.5" width="332" height="41" rx="20.5" stroke="#EAEAEA"/>
</g>
<g filter="url(#filter3_d_406_180)">
<path d="M23 312C23 302.059 31.0589 294 41 294H248C257.941 294 266 302.059 266 312V438C266 447.941 257.941 456 248 456H144.5H83.75H53.375H45.7812H41.9844H38.1875H33.372V456C27.6437 456 23 451.356 23 445.628V312Z" fill="url(#paint2_linear_406_180)" fill-opacity="0.5" shape-rendering="crispEdges"/>
</g>
<g filter="url(#filter4_d_406_180)">
<rect x="116" y="236" width="240" height="35" rx="17.5" fill="white"/>
</g>
<path d="M58.2889 507L50.5889 499.65C49.9778 500.117 49.275 500.486 48.4806 500.758C47.6861 501.031 46.8407 501.167 45.9444 501.167C43.7241 501.167 41.8449 500.433 40.3069 498.965C38.769 497.497 38 495.703 38 493.583C38 491.464 38.769 489.67 40.3069 488.202C41.8449 486.734 43.7241 486 45.9444 486C48.1648 486 50.044 486.734 51.5819 488.202C53.1199 489.67 53.8889 491.464 53.8889 493.583C53.8889 494.439 53.7463 495.246 53.4611 496.004C53.1759 496.762 52.7889 497.433 52.3 498.017L60 505.367L58.2889 507ZM45.9444 498.833C47.4722 498.833 48.7708 498.323 49.8403 497.302C50.9097 496.281 51.4444 495.042 51.4444 493.583C51.4444 492.125 50.9097 490.885 49.8403 489.865C48.7708 488.844 47.4722 488.333 45.9444 488.333C44.4167 488.333 43.1181 488.844 42.0486 489.865C40.9792 490.885 40.4444 492.125 40.4444 493.583C40.4444 495.042 40.9792 496.281 42.0486 497.302C43.1181 498.323 44.4167 498.833 45.9444 498.833Z" fill="#A48EC8"/>
<defs>
<filter id="filter0_d_406_180" x="94" y="118" width="268" height="43" filterUnits="userSpaceOnUse" color-interpolation-filters="sRGB">
<feFlood flood-opacity="0" result="BackgroundImageFix"/>
<feColorMatrix in="SourceAlpha" type="matrix" values="0 0 0 0 0 0 0 0 0 0 0 0 0 0 0 0 0 0 127 0" result="hardAlpha"/>
<feOffset dx="2" dy="2"/>
<feGaussianBlur stdDeviation="2"/>
<feComposite in2="hardAlpha" operator="out"/>
<feColorMatrix type="matrix" values="0 0 0 0 0.394157 0 0 0 0 0.394157 0 0 0 0 0.394157 0 0 0 0.25 0"/>
<feBlend mode="normal" in2="BackgroundImageFix" result="effect1_dropShadow_406_180"/>
<feBlend mode="normal" in="SourceGraphic" in2="effect1_dropShadow_406_180" result="shape"/>
</filter>
<filter id="filter1_d_406_180" x="21" y="176" width="321" height="43" filterUnits="userSpaceOnUse" color-interpolation-filters="sRGB">
<feFlood flood-opacity="0" result="BackgroundImageFix"/>
<feColorMatrix in="SourceAlpha" type="matrix" values="0 0 0 0 0 0 0 0 0 0 0 0 0 0 0 0 0 0 127 0" result="hardAlpha"/>
<feOffset dx="2" dy="2"/>
<feGaussianBlur stdDeviation="2"/>
<feComposite in2="hardAlpha" operator="out"/>
<feColorMatrix type="matrix" values="0 0 0 0 0.394157 0 0 0 0 0.394157 0 0 0 0 0.394157 0 0 0 0.25 0"/>
<feBlend mode="normal" in2="BackgroundImageFix" result="effect1_dropShadow_406_180"/>
<feBlend mode="normal" in="SourceGraphic" in2="effect1_dropShadow_406_180" result="shape"/>
</filter>
<filter id="filter2_d_406_180" x="21" y="472" width="341" height="50" filterUnits="userSpaceOnUse" color-interpolation-filters="sRGB">
<feFlood flood-opacity="0" result="BackgroundImageFix"/>
<feColorMatrix in="SourceAlpha" type="matrix" values="0 0 0 0 0 0 0 0 0 0 0 0 0 0 0 0 0 0 127 0" result="hardAlpha"/>
<feOffset dx="2" dy="2"/>
<feGaussianBlur stdDeviation="2"/>
<feComposite in2="hardAlpha" operator="out"/>
<feColorMatrix type="matrix" values="0 0 0 0 0.394157 0 0 0 0 0.394157 0 0 0 0 0.394157 0 0 0 0.25 0"/>
<feBlend mode="normal" in2="BackgroundImageFix" result="effect1_dropShadow_406_180"/>
<feBlend mode="normal" in="SourceGraphic" in2="effect1_dropShadow_406_180" result="shape"/>
</filter>
<filter id="filter3_d_406_180" x="21" y="292" width="251" height="170" filterUnits="userSpaceOnUse" color-interpolation-filters="sRGB">
<feFlood flood-opacity="0" result="BackgroundImageFix"/>
<feColorMatrix in="SourceAlpha" type="matrix" values="0 0 0 0 0 0 0 0 0 0 0 0 0 0 0 0 0 0 127 0" result="hardAlpha"/>
<feOffset dx="2" dy="2"/>
<feGaussianBlur stdDeviation="2"/>
<feComposite in2="hardAlpha" operator="out"/>
<feColorMatrix type="matrix" values="0 0 0 0 0.0950846 0 0 0 0 0.0950846 0 0 0 0 0.0950846 0 0 0 0.25 0"/>
<feBlend mode="normal" in2="BackgroundImageFix" result="effect1_dropShadow_406_180"/>
<feBlend mode="normal" in="SourceGraphic" in2="effect1_dropShadow_406_180" result="shape"/>
</filter>
<filter id="filter4_d_406_180" x="114" y="234" width="248" height="43" filterUnits="userSpaceOnUse" color-interpolation-filters="sRGB">
<feFlood flood-opacity="0" result="BackgroundImageFix"/>
<feColorMatrix in="SourceAlpha" type="matrix" values="0 0 0 0 0 0 0 0 0 0 0 0 0 0 0 0 0 0 127 0" result="hardAlpha"/>
<feOffset dx="2" dy="2"/>
<feGaussianBlur stdDeviation="2"/>
<feComposite in2="hardAlpha" operator="out"/>
<feColorMatrix type="matrix" values="0 0 0 0 0.394157 0 0 0 0 0.394157 0 0 0 0 0.394157 0 0 0 0.25 0"/>
<feBlend mode="normal" in2="BackgroundImageFix" result="effect1_dropShadow_406_180"/>
<feBlend mode="normal" in="SourceGraphic" in2="effect1_dropShadow_406_180" result="shape"/>
</filter>
<linearGradient id="paint0_linear_406_180" x1="39" y1="-202.5" x2="246.747" y2="494.566" gradientUnits="userSpaceOnUse">
<stop stop-color="#32BDF9"/>
<stop offset="0.935" stop-color="#7241FF"/>
</linearGradient>
<linearGradient id="paint1_linear_406_180" x1="210.5" y1="3.29319e-06" x2="203.328" y2="531.011" gradientUnits="userSpaceOnUse">
<stop stop-color="#B1C8FB"/>
<stop offset="1" stop-color="#B593FF"/>
</linearGradient>
<linearGradient id="paint2_linear_406_180" x1="130.177" y1="525.853" x2="125.705" y2="294.048" gradientUnits="userSpaceOnUse">
<stop stop-color="#AF35E8"/>
<stop offset="1" stop-color="#2A92EF"/>
</linearGradient>
</defs>
</svg>
