<svg width="590" height="353" viewBox="0 0 590 353" fill="none" xmlns="http://www.w3.org/2000/svg">
<rect x="41.5757" y="0.973389" width="548.424" height="315.785" rx="15" fill="url(#paint0_linear_388_71)"/>
<g filter="url(#filter0_d_388_71)">
<rect x="27.8364" y="39.8079" width="530.105" height="288.192" rx="25" fill="white"/>
</g>
<path d="M67.3079 88.9114V76.4374H70.7819V86.1034H75.9839V88.9114H67.3079ZM82.4918 88.9114L82.2398 88.1914C81.8798 88.5274 81.4718 88.7854 81.0158 88.9654C80.5598 89.1454 80.0918 89.2354 79.6118 89.2354C78.7238 89.2354 78.0038 88.9774 77.4518 88.4614C76.9118 87.9454 76.6418 87.2554 76.6418 86.3914C76.6418 85.7794 76.8038 85.2454 77.1278 84.7894C77.4518 84.3214 77.8958 83.9674 78.4598 83.7274C79.0238 83.4754 79.6658 83.3494 80.3858 83.3494C80.9258 83.3494 81.4658 83.4034 82.0058 83.5114V83.0434C82.0058 82.5394 81.8918 82.1914 81.6638 81.9994C81.4358 81.8074 81.0338 81.7114 80.4578 81.7114C79.6178 81.7114 78.5918 81.8974 77.3798 82.2694V80.1814C77.8718 79.9294 78.4658 79.7314 79.1618 79.5874C79.8578 79.4434 80.5718 79.3714 81.3038 79.3714C82.6238 79.3714 83.5898 79.6414 84.2018 80.1814C84.8258 80.7094 85.1378 81.5494 85.1378 82.7014V88.9114H82.4918ZM80.7098 87.0934C80.9378 87.0934 81.1718 87.0454 81.4118 86.9494C81.6518 86.8414 81.8498 86.7094 82.0058 86.5534V85.2214C81.6698 85.1734 81.3398 85.1494 81.0158 85.1494C80.2118 85.1494 79.8098 85.4854 79.8098 86.1574C79.8098 86.4454 79.8878 86.6734 80.0438 86.8414C80.2118 87.0094 80.4338 87.0934 80.7098 87.0934ZM93.3711 88.6774C92.6631 88.9414 91.8531 89.0734 90.9411 89.0734C89.8011 89.0614 88.9611 88.7974 88.4211 88.2814C87.8811 87.7534 87.6111 86.9254 87.6111 85.7974V81.9454H86.3331V80.0374L87.7011 79.7134L88.2411 77.2294H90.9951V79.6414H93.3351V81.9454H90.9951V85.5814C90.9951 85.9414 91.0851 86.1934 91.2651 86.3374C91.4451 86.4814 91.7511 86.5534 92.1831 86.5534C92.5191 86.5534 92.9151 86.5174 93.3711 86.4454V88.6774ZM97.4586 85.1314C97.5186 85.7314 97.7466 86.1694 98.1426 86.4454C98.5506 86.7094 99.1566 86.8414 99.9606 86.8414C100.729 86.8414 101.665 86.6854 102.769 86.3734V88.4434C102.313 88.6714 101.767 88.8514 101.131 88.9834C100.495 89.1154 99.8646 89.1814 99.2406 89.1814C96.0006 89.1814 94.3806 87.5494 94.3806 84.2854C94.3806 82.7494 94.7946 81.5494 95.6226 80.6854C96.4506 79.8094 97.6026 79.3714 99.0786 79.3714C100.327 79.3714 101.293 79.7074 101.977 80.3794C102.661 81.0394 103.003 81.9874 103.003 83.2234C103.003 83.4994 102.979 83.8294 102.931 84.2134C102.895 84.5854 102.853 84.8914 102.805 85.1314H97.4586ZM98.9886 81.6214C98.5566 81.6214 98.2086 81.7594 97.9446 82.0354C97.6806 82.2994 97.5186 82.6834 97.4586 83.1874H100.159V82.9714C100.159 82.0714 99.7686 81.6214 98.9886 81.6214ZM110.503 88.9114V82.8274C110.503 82.4674 110.431 82.2034 110.287 82.0354C110.155 81.8674 109.927 81.7834 109.603 81.7834C109.159 81.7834 108.691 81.9334 108.199 82.2334V88.9114H104.815V79.6414H107.569L107.857 80.5774C108.421 80.1574 108.973 79.8514 109.513 79.6594C110.053 79.4674 110.623 79.3714 111.223 79.3714C112.087 79.3714 112.747 79.6054 113.203 80.0734C113.659 80.5414 113.887 81.2074 113.887 82.0714V88.9114H110.503ZM123.263 88.4974C122.891 88.6894 122.459 88.8394 121.967 88.9474C121.475 89.0554 120.965 89.1094 120.437 89.1094C118.889 89.1094 117.707 88.7074 116.891 87.9034C116.087 87.0874 115.685 85.8994 115.685 84.3394C115.685 82.7914 116.111 81.5914 116.963 80.7394C117.827 79.8754 119.033 79.4434 120.581 79.4434C121.613 79.4434 122.495 79.6414 123.227 80.0374V82.1794C122.531 81.9634 121.877 81.8554 121.265 81.8554C120.521 81.8554 119.975 82.0414 119.627 82.4134C119.279 82.7854 119.105 83.3674 119.105 84.1594V84.4114C119.105 85.1914 119.279 85.7674 119.627 86.1394C119.975 86.5114 120.503 86.6974 121.211 86.6974C121.859 86.6974 122.543 86.5834 123.263 86.3554V88.4974ZM126.031 90.4054C126.511 90.4054 126.889 90.3094 127.165 90.1174C127.453 89.9374 127.687 89.6314 127.867 89.1994L124.177 79.6414H127.759L129.343 85.7974L130.801 79.6414H134.293L130.621 89.8474C130.249 90.8914 129.781 91.6474 129.217 92.1154C128.653 92.5954 127.933 92.8354 127.057 92.8354C126.313 92.8354 125.617 92.7274 124.969 92.5114V90.3514C125.245 90.3874 125.599 90.4054 126.031 90.4054Z" fill="#556982"/>
<line x1="65.6108" y1="154.284" x2="526.906" y2="154.284" stroke="#F0F0F0"/>
<line x1="65.6108" y1="207.161" x2="526.906" y2="207.161" stroke="#F0F0F0"/>
<line x1="67.6299" y1="250.92" x2="537" y2="250.92" stroke="#F0F0F0"/>
<path d="M73.9627 177.655L75.4207 176.809H76.1317V182.929H75.3667V177.637L74.3047 178.249L73.9627 177.655ZM81.9206 179.194V180.535C81.9206 181.351 81.7376 181.969 81.3716 182.389C81.0056 182.809 80.4956 183.019 79.8416 183.019C79.1876 183.019 78.6776 182.809 78.3116 182.389C77.9516 181.969 77.7716 181.351 77.7716 180.535V179.194C77.7716 178.384 77.9546 177.769 78.3206 177.349C78.6866 176.929 79.1936 176.719 79.8416 176.719C80.4956 176.719 81.0056 176.929 81.3716 177.349C81.7376 177.769 81.9206 178.384 81.9206 179.194ZM81.1286 179.194C81.1286 178.57 81.0146 178.12 80.7866 177.844C80.5646 177.568 80.2496 177.43 79.8416 177.43C79.4396 177.43 79.1246 177.568 78.8966 177.844C78.6746 178.12 78.5636 178.57 78.5636 179.194V180.535C78.5636 181.153 78.6746 181.606 78.8966 181.894C79.1246 182.176 79.4396 182.317 79.8416 182.317C80.2496 182.317 80.5646 182.176 80.7866 181.894C81.0146 181.606 81.1286 181.153 81.1286 180.535V179.194ZM87.4402 179.194V180.535C87.4402 181.351 87.2572 181.969 86.8912 182.389C86.5252 182.809 86.0152 183.019 85.3612 183.019C84.7072 183.019 84.1972 182.809 83.8312 182.389C83.4712 181.969 83.2912 181.351 83.2912 180.535V179.194C83.2912 178.384 83.4742 177.769 83.8402 177.349C84.2062 176.929 84.7132 176.719 85.3612 176.719C86.0152 176.719 86.5252 176.929 86.8912 177.349C87.2572 177.769 87.4402 178.384 87.4402 179.194ZM86.6482 179.194C86.6482 178.57 86.5342 178.12 86.3062 177.844C86.0842 177.568 85.7692 177.43 85.3612 177.43C84.9592 177.43 84.6442 177.568 84.4162 177.844C84.1942 178.12 84.0832 178.57 84.0832 179.194V180.535C84.0832 181.153 84.1942 181.606 84.4162 181.894C84.6442 182.176 84.9592 182.317 85.3612 182.317C85.7692 182.317 86.0842 182.176 86.3062 181.894C86.5342 181.606 86.6482 181.153 86.6482 180.535V179.194ZM91.0157 179.077C90.8477 179.077 90.6587 179.122 90.4487 179.212C90.2387 179.296 89.9747 179.464 89.6567 179.716V182.929H88.9187V178.474H89.6207V179.095C89.9387 178.831 90.2207 178.648 90.4667 178.546C90.7127 178.438 90.9557 178.384 91.1957 178.384C91.4777 178.384 91.7117 178.45 91.8977 178.582C92.0837 178.708 92.2217 178.891 92.3117 179.131C92.6417 178.849 92.9357 178.654 93.1937 178.546C93.4577 178.438 93.7157 178.384 93.9677 178.384C94.3637 178.384 94.6667 178.516 94.8767 178.78C95.0867 179.038 95.1917 179.407 95.1917 179.887V182.929H94.4537V179.995C94.4537 179.383 94.2317 179.077 93.7877 179.077C93.6197 179.077 93.4277 179.122 93.2117 179.212C93.0017 179.296 92.7377 179.464 92.4197 179.716C92.4257 179.74 92.4287 179.767 92.4287 179.797C92.4287 179.827 92.4287 179.857 92.4287 179.887V182.929H91.6907V179.995C91.6907 179.383 91.4657 179.077 91.0157 179.077ZM97.8299 182.362C98.4299 182.362 98.7299 182.158 98.7299 181.75C98.7299 181.576 98.6759 181.438 98.5679 181.336C98.4599 181.234 98.2619 181.147 97.9739 181.075L97.4789 180.949C97.1129 180.859 96.8399 180.703 96.6599 180.481C96.4799 180.253 96.3899 179.983 96.3899 179.671C96.3899 179.443 96.4409 179.233 96.5429 179.041C96.6449 178.843 96.8069 178.684 97.0289 178.564C97.2509 178.444 97.5389 178.384 97.8929 178.384C98.1209 178.384 98.3519 178.411 98.5859 178.465C98.8259 178.513 99.0689 178.597 99.3149 178.717L99.0809 179.338C98.6429 179.14 98.2469 179.041 97.8929 179.041C97.3709 179.041 97.1099 179.236 97.1099 179.626C97.1099 179.776 97.1579 179.905 97.2539 180.013C97.3499 180.121 97.5299 180.208 97.7939 180.274L98.2889 180.4C98.6849 180.496 98.9759 180.652 99.1619 180.868C99.3479 181.084 99.4409 181.363 99.4409 181.705C99.4409 181.951 99.3869 182.176 99.2789 182.38C99.1769 182.578 99.0089 182.734 98.7749 182.848C98.5469 182.962 98.2379 183.019 97.8479 183.019C97.5899 183.019 97.3319 182.992 97.0739 182.938C96.8219 182.884 96.5609 182.797 96.2909 182.677L96.4889 182.065C96.7469 182.167 96.9809 182.242 97.1909 182.29C97.4009 182.338 97.6139 182.362 97.8299 182.362Z" fill="#C8B5E0" fill-opacity="0.6"/>
<path d="M75.5214 228.973L75.7014 226.039H78.7434V226.759H76.3944L76.2864 228.514C76.5504 228.424 76.8354 228.379 77.1414 228.379C77.7054 228.379 78.1554 228.529 78.4914 228.829C78.8274 229.129 78.9954 229.573 78.9954 230.161V230.431C78.9954 230.965 78.8394 231.403 78.5274 231.745C78.2154 232.081 77.7144 232.249 77.0244 232.249C76.7544 232.249 76.4724 232.219 76.1784 232.159C75.8904 232.093 75.5904 231.991 75.2784 231.853L75.5214 231.205C75.8154 231.331 76.0824 231.421 76.3224 231.475C76.5624 231.523 76.7934 231.547 77.0154 231.547C77.3874 231.547 77.6784 231.463 77.8884 231.295C78.0984 231.121 78.2034 230.833 78.2034 230.431V230.161C78.2034 229.831 78.1074 229.567 77.9154 229.369C77.7294 229.171 77.4444 229.072 77.0604 229.072C76.8804 229.072 76.7034 229.096 76.5294 229.144C76.3554 229.186 76.1724 229.249 75.9804 229.333L75.5214 228.973ZM84.3039 228.424V229.765C84.3039 230.581 84.1209 231.199 83.7549 231.619C83.3889 232.039 82.8789 232.249 82.2249 232.249C81.5709 232.249 81.0609 232.039 80.6949 231.619C80.3349 231.199 80.1549 230.581 80.1549 229.765V228.424C80.1549 227.614 80.3379 226.999 80.7039 226.579C81.0699 226.159 81.5769 225.949 82.2249 225.949C82.8789 225.949 83.3889 226.159 83.7549 226.579C84.1209 226.999 84.3039 227.614 84.3039 228.424ZM83.5119 228.424C83.5119 227.8 83.3979 227.35 83.1699 227.074C82.9479 226.798 82.6329 226.66 82.2249 226.66C81.8229 226.66 81.5079 226.798 81.2799 227.074C81.0579 227.35 80.9469 227.8 80.9469 228.424V229.765C80.9469 230.383 81.0579 230.836 81.2799 231.124C81.5079 231.406 81.8229 231.547 82.2249 231.547C82.6329 231.547 82.9479 231.406 83.1699 231.124C83.3979 230.836 83.5119 230.383 83.5119 229.765V228.424ZM87.8795 228.307C87.7115 228.307 87.5225 228.352 87.3125 228.442C87.1025 228.526 86.8385 228.694 86.5205 228.946V232.159H85.7825V227.704H86.4845V228.325C86.8025 228.061 87.0845 227.878 87.3305 227.776C87.5765 227.668 87.8195 227.614 88.0595 227.614C88.3415 227.614 88.5755 227.68 88.7615 227.812C88.9475 227.938 89.0855 228.121 89.1755 228.361C89.5055 228.079 89.7995 227.884 90.0575 227.776C90.3215 227.668 90.5795 227.614 90.8315 227.614C91.2275 227.614 91.5305 227.746 91.7405 228.01C91.9505 228.268 92.0555 228.637 92.0555 229.117V232.159H91.3175V229.225C91.3175 228.613 91.0955 228.307 90.6515 228.307C90.4835 228.307 90.2915 228.352 90.0755 228.442C89.8655 228.526 89.6015 228.694 89.2835 228.946C89.2895 228.97 89.2925 228.997 89.2925 229.027C89.2925 229.057 89.2925 229.087 89.2925 229.117V232.159H88.5545V229.225C88.5545 228.613 88.3295 228.307 87.8795 228.307ZM94.6937 231.592C95.2937 231.592 95.5937 231.388 95.5937 230.98C95.5937 230.806 95.5397 230.668 95.4317 230.566C95.3237 230.464 95.1257 230.377 94.8377 230.305L94.3427 230.179C93.9767 230.089 93.7037 229.933 93.5237 229.711C93.3437 229.483 93.2537 229.213 93.2537 228.901C93.2537 228.673 93.3047 228.463 93.4067 228.271C93.5087 228.073 93.6707 227.914 93.8927 227.794C94.1147 227.674 94.4027 227.614 94.7567 227.614C94.9847 227.614 95.2157 227.641 95.4497 227.695C95.6897 227.743 95.9327 227.827 96.1787 227.947L95.9447 228.568C95.5067 228.37 95.1107 228.271 94.7567 228.271C94.2347 228.271 93.9737 228.466 93.9737 228.856C93.9737 229.006 94.0217 229.135 94.1177 229.243C94.2137 229.351 94.3937 229.438 94.6577 229.504L95.1527 229.63C95.5487 229.726 95.8397 229.882 96.0257 230.098C96.2117 230.314 96.3047 230.593 96.3047 230.935C96.3047 231.181 96.2507 231.406 96.1427 231.61C96.0407 231.808 95.8727 231.964 95.6387 232.078C95.4107 232.192 95.1017 232.249 94.7117 232.249C94.4537 232.249 94.1957 232.222 93.9377 232.168C93.6857 232.114 93.4247 232.027 93.1547 231.907L93.3527 231.295C93.6107 231.397 93.8447 231.472 94.0547 231.52C94.2647 231.568 94.4777 231.592 94.6937 231.592Z" fill="#C8B5E0" fill-opacity="0.6"/>
<path d="M122.933 308.604L123.905 308.04H124.379V312.12H123.869V308.592L123.161 309L122.933 308.604ZM128.238 309.63V310.524C128.238 311.068 128.116 311.48 127.872 311.76C127.628 312.04 127.288 312.18 126.852 312.18C126.416 312.18 126.076 312.04 125.832 311.76C125.592 311.48 125.472 311.068 125.472 310.524V309.63C125.472 309.09 125.594 308.68 125.838 308.4C126.082 308.12 126.42 307.98 126.852 307.98C127.288 307.98 127.628 308.12 127.872 308.4C128.116 308.68 128.238 309.09 128.238 309.63ZM127.71 309.63C127.71 309.214 127.634 308.914 127.482 308.73C127.334 308.546 127.124 308.454 126.852 308.454C126.584 308.454 126.374 308.546 126.222 308.73C126.074 308.914 126 309.214 126 309.63V310.524C126 310.936 126.074 311.238 126.222 311.43C126.374 311.618 126.584 311.712 126.852 311.712C127.124 311.712 127.334 311.618 127.482 311.43C127.634 311.238 127.71 310.936 127.71 310.524V309.63ZM129.548 309.702H128.996V309.15H129.548V309.702ZM129.548 312.12H128.996V311.574H129.548V312.12ZM133.072 309.63V310.524C133.072 311.068 132.95 311.48 132.706 311.76C132.462 312.04 132.122 312.18 131.686 312.18C131.25 312.18 130.91 312.04 130.666 311.76C130.426 311.48 130.306 311.068 130.306 310.524V309.63C130.306 309.09 130.428 308.68 130.672 308.4C130.916 308.12 131.254 307.98 131.686 307.98C132.122 307.98 132.462 308.12 132.706 308.4C132.95 308.68 133.072 309.09 133.072 309.63ZM132.544 309.63C132.544 309.214 132.468 308.914 132.316 308.73C132.168 308.546 131.958 308.454 131.686 308.454C131.418 308.454 131.208 308.546 131.056 308.73C130.908 308.914 130.834 309.214 130.834 309.63V310.524C130.834 310.936 130.908 311.238 131.056 311.43C131.208 311.618 131.418 311.712 131.686 311.712C131.958 311.712 132.168 311.618 132.316 311.43C132.468 311.238 132.544 310.936 132.544 310.524V309.63ZM136.752 309.63V310.524C136.752 311.068 136.63 311.48 136.386 311.76C136.142 312.04 135.802 312.18 135.366 312.18C134.93 312.18 134.59 312.04 134.346 311.76C134.106 311.48 133.986 311.068 133.986 310.524V309.63C133.986 309.09 134.108 308.68 134.352 308.4C134.596 308.12 134.934 307.98 135.366 307.98C135.802 307.98 136.142 308.12 136.386 308.4C136.63 308.68 136.752 309.09 136.752 309.63ZM136.224 309.63C136.224 309.214 136.148 308.914 135.996 308.73C135.848 308.546 135.638 308.454 135.366 308.454C135.098 308.454 134.888 308.546 134.736 308.73C134.588 308.914 134.514 309.214 134.514 309.63V310.524C134.514 310.936 134.588 311.238 134.736 311.43C134.888 311.618 135.098 311.712 135.366 311.712C135.638 311.712 135.848 311.618 135.996 311.43C136.148 311.238 136.224 310.936 136.224 310.524V309.63ZM141.216 312.15C141.032 312.15 140.884 312.108 140.772 312.024C140.664 311.94 140.588 311.836 140.544 311.712C140.348 311.884 140.17 312.006 140.01 312.078C139.85 312.146 139.69 312.18 139.53 312.18C139.27 312.18 139.078 312.096 138.954 311.928C138.83 311.76 138.768 311.554 138.768 311.31C138.768 311.146 138.798 311 138.858 310.872C138.918 310.744 139.02 310.644 139.164 310.572C139.308 310.496 139.502 310.458 139.746 310.458C139.854 310.458 139.972 310.466 140.1 310.482C140.228 310.494 140.358 310.51 140.49 310.53V310.128C140.49 309.904 140.44 309.752 140.34 309.672C140.244 309.588 140.102 309.546 139.914 309.546C139.658 309.546 139.372 309.616 139.056 309.756L138.9 309.348C139.084 309.264 139.26 309.2 139.428 309.156C139.596 309.112 139.766 309.09 139.938 309.09C140.218 309.09 140.432 309.136 140.58 309.228C140.728 309.32 140.83 309.442 140.886 309.594C140.942 309.746 140.97 309.912 140.97 310.092V311.376C140.97 311.468 140.988 311.546 141.024 311.61C141.06 311.67 141.132 311.7 141.24 311.7H141.306V312.15H141.216ZM139.254 311.304C139.254 311.44 139.286 311.55 139.35 311.634C139.414 311.718 139.506 311.76 139.626 311.76C139.73 311.76 139.85 311.73 139.986 311.67C140.122 311.606 140.29 311.48 140.49 311.292V310.914C140.218 310.87 139.978 310.848 139.77 310.848C139.586 310.848 139.454 310.886 139.374 310.962C139.294 311.038 139.254 311.152 139.254 311.304ZM143.401 309.552C143.289 309.552 143.163 309.582 143.023 309.642C142.883 309.698 142.707 309.81 142.495 309.978V312.12H142.003V309.15H142.471V309.564C142.683 309.388 142.871 309.266 143.035 309.198C143.199 309.126 143.361 309.09 143.521 309.09C143.709 309.09 143.865 309.134 143.989 309.222C144.113 309.306 144.205 309.428 144.265 309.588C144.485 309.4 144.681 309.27 144.853 309.198C145.029 309.126 145.201 309.09 145.369 309.09C145.633 309.09 145.835 309.178 145.975 309.354C146.115 309.526 146.185 309.772 146.185 310.092V312.12H145.693V310.164C145.693 309.756 145.545 309.552 145.249 309.552C145.137 309.552 145.009 309.582 144.865 309.642C144.725 309.698 144.549 309.81 144.337 309.978C144.341 309.994 144.343 310.012 144.343 310.032C144.343 310.052 144.343 310.072 144.343 310.092V312.12H143.851V310.164C143.851 309.756 143.701 309.552 143.401 309.552Z" fill="#C8B5E0" fill-opacity="0.6"/>
<path d="M66.257 310.536C66.257 311.092 66.131 311.506 65.879 311.778C65.627 312.046 65.279 312.18 64.835 312.18C64.679 312.18 64.511 312.162 64.331 312.126C64.155 312.09 63.967 312.026 63.767 311.934L63.947 311.496C64.123 311.572 64.283 311.628 64.427 311.664C64.575 311.696 64.707 311.712 64.823 311.712C65.107 311.712 65.335 311.624 65.507 311.448C65.679 311.272 65.765 310.968 65.765 310.536V310.182C65.621 310.306 65.467 310.406 65.303 310.482C65.139 310.558 64.965 310.596 64.781 310.596C64.429 310.596 64.153 310.486 63.953 310.266C63.753 310.042 63.653 309.748 63.653 309.384V309.204C63.653 308.968 63.703 308.758 63.803 308.574C63.907 308.39 64.053 308.246 64.241 308.142C64.433 308.034 64.661 307.98 64.925 307.98C65.353 307.98 65.681 308.126 65.909 308.418C66.141 308.71 66.257 309.12 66.257 309.648V310.536ZM64.151 309.384C64.151 309.612 64.211 309.794 64.331 309.93C64.455 310.066 64.627 310.134 64.847 310.134C65.015 310.134 65.175 310.098 65.327 310.026C65.483 309.95 65.629 309.848 65.765 309.72V309.648C65.765 309.244 65.691 308.944 65.543 308.748C65.399 308.552 65.191 308.454 64.919 308.454C64.679 308.454 64.491 308.524 64.355 308.664C64.219 308.804 64.151 308.984 64.151 309.204V309.384ZM67.5798 309.702H67.0278V309.15H67.5798V309.702ZM67.5798 312.12H67.0278V311.574H67.5798V312.12ZM70.4741 311.058C70.4741 311.386 70.3721 311.656 70.1681 311.868C69.9641 312.076 69.6361 312.18 69.1841 312.18C69.0041 312.18 68.8161 312.16 68.6201 312.12C68.4281 312.076 68.2281 312.008 68.0201 311.916L68.1761 311.484C68.3761 311.564 68.5541 311.622 68.7101 311.658C68.8701 311.694 69.0241 311.712 69.1721 311.712C69.4201 311.712 69.6121 311.66 69.7481 311.556C69.8881 311.452 69.9581 311.282 69.9581 311.046V310.95C69.9581 310.75 69.9001 310.59 69.7841 310.47C69.6681 310.35 69.4901 310.29 69.2501 310.29H68.6501V309.834H69.2501C69.4781 309.834 69.6461 309.778 69.7541 309.666C69.8621 309.55 69.9161 309.394 69.9161 309.198V309.114C69.9161 308.878 69.8521 308.71 69.7241 308.61C69.5961 308.506 69.4181 308.454 69.1901 308.454C69.0501 308.454 68.9061 308.472 68.7581 308.508C68.6101 308.54 68.4421 308.596 68.2541 308.676L68.0861 308.238C68.2861 308.146 68.4781 308.08 68.6621 308.04C68.8501 308 69.0301 307.98 69.2021 307.98C69.6341 307.98 69.9481 308.084 70.1441 308.292C70.3401 308.5 70.4381 308.77 70.4381 309.102V309.186C70.4381 309.386 70.3901 309.562 70.2941 309.714C70.1981 309.862 70.0681 309.978 69.9041 310.062C70.0801 310.142 70.2181 310.26 70.3181 310.416C70.4221 310.568 70.4741 310.75 70.4741 310.962V311.058ZM74.0923 309.63V310.524C74.0923 311.068 73.9703 311.48 73.7263 311.76C73.4823 312.04 73.1423 312.18 72.7063 312.18C72.2703 312.18 71.9303 312.04 71.6863 311.76C71.4463 311.48 71.3263 311.068 71.3263 310.524V309.63C71.3263 309.09 71.4483 308.68 71.6923 308.4C71.9363 308.12 72.2743 307.98 72.7063 307.98C73.1423 307.98 73.4823 308.12 73.7263 308.4C73.9703 308.68 74.0923 309.09 74.0923 309.63ZM73.5643 309.63C73.5643 309.214 73.4883 308.914 73.3363 308.73C73.1883 308.546 72.9783 308.454 72.7063 308.454C72.4383 308.454 72.2283 308.546 72.0763 308.73C71.9283 308.914 71.8543 309.214 71.8543 309.63V310.524C71.8543 310.936 71.9283 311.238 72.0763 311.43C72.2283 311.618 72.4383 311.712 72.7063 311.712C72.9783 311.712 73.1883 311.618 73.3363 311.43C73.4883 311.238 73.5643 310.936 73.5643 310.524V309.63ZM78.5567 312.15C78.3727 312.15 78.2247 312.108 78.1127 312.024C78.0047 311.94 77.9287 311.836 77.8847 311.712C77.6887 311.884 77.5107 312.006 77.3507 312.078C77.1907 312.146 77.0307 312.18 76.8707 312.18C76.6107 312.18 76.4187 312.096 76.2947 311.928C76.1707 311.76 76.1087 311.554 76.1087 311.31C76.1087 311.146 76.1387 311 76.1987 310.872C76.2587 310.744 76.3607 310.644 76.5047 310.572C76.6487 310.496 76.8427 310.458 77.0867 310.458C77.1947 310.458 77.3127 310.466 77.4407 310.482C77.5687 310.494 77.6987 310.51 77.8307 310.53V310.128C77.8307 309.904 77.7807 309.752 77.6807 309.672C77.5847 309.588 77.4427 309.546 77.2547 309.546C76.9987 309.546 76.7127 309.616 76.3967 309.756L76.2407 309.348C76.4247 309.264 76.6007 309.2 76.7687 309.156C76.9367 309.112 77.1067 309.09 77.2787 309.09C77.5587 309.09 77.7727 309.136 77.9207 309.228C78.0687 309.32 78.1707 309.442 78.2267 309.594C78.2827 309.746 78.3107 309.912 78.3107 310.092V311.376C78.3107 311.468 78.3287 311.546 78.3647 311.61C78.4007 311.67 78.4727 311.7 78.5807 311.7H78.6467V312.15H78.5567ZM76.5947 311.304C76.5947 311.44 76.6267 311.55 76.6907 311.634C76.7547 311.718 76.8467 311.76 76.9667 311.76C77.0707 311.76 77.1907 311.73 77.3267 311.67C77.4627 311.606 77.6307 311.48 77.8307 311.292V310.914C77.5587 310.87 77.3187 310.848 77.1107 310.848C76.9267 310.848 76.7947 310.886 76.7147 310.962C76.6347 311.038 76.5947 311.152 76.5947 311.304ZM80.7416 309.552C80.6296 309.552 80.5036 309.582 80.3636 309.642C80.2236 309.698 80.0476 309.81 79.8356 309.978V312.12H79.3436V309.15H79.8116V309.564C80.0236 309.388 80.2116 309.266 80.3756 309.198C80.5396 309.126 80.7016 309.09 80.8616 309.09C81.0496 309.09 81.2056 309.134 81.3296 309.222C81.4536 309.306 81.5456 309.428 81.6056 309.588C81.8256 309.4 82.0216 309.27 82.1936 309.198C82.3696 309.126 82.5416 309.09 82.7096 309.09C82.9736 309.09 83.1756 309.178 83.3156 309.354C83.4556 309.526 83.5256 309.772 83.5256 310.092V312.12H83.0336V310.164C83.0336 309.756 82.8856 309.552 82.5896 309.552C82.4776 309.552 82.3496 309.582 82.2056 309.642C82.0656 309.698 81.8896 309.81 81.6776 309.978C81.6816 309.994 81.6836 310.012 81.6836 310.032C81.6836 310.052 81.6836 310.072 81.6836 310.092V312.12H81.1916V310.164C81.1916 309.756 81.0416 309.552 80.7416 309.552Z" fill="#C8B5E0" fill-opacity="0.6"/>
<path d="M186.871 308.604L187.843 308.04H188.317V312.12H187.807V308.592L187.099 309L186.871 308.604ZM192.176 309.63V310.524C192.176 311.068 192.054 311.48 191.81 311.76C191.566 312.04 191.226 312.18 190.79 312.18C190.354 312.18 190.014 312.04 189.77 311.76C189.53 311.48 189.41 311.068 189.41 310.524V309.63C189.41 309.09 189.532 308.68 189.776 308.4C190.02 308.12 190.358 307.98 190.79 307.98C191.226 307.98 191.566 308.12 191.81 308.4C192.054 308.68 192.176 309.09 192.176 309.63ZM191.648 309.63C191.648 309.214 191.572 308.914 191.42 308.73C191.272 308.546 191.062 308.454 190.79 308.454C190.522 308.454 190.312 308.546 190.16 308.73C190.012 308.914 189.938 309.214 189.938 309.63V310.524C189.938 310.936 190.012 311.238 190.16 311.43C190.312 311.618 190.522 311.712 190.79 311.712C191.062 311.712 191.272 311.618 191.42 311.43C191.572 311.238 191.648 310.936 191.648 310.524V309.63ZM193.486 309.702H192.934V309.15H193.486V309.702ZM193.486 312.12H192.934V311.574H193.486V312.12ZM196.38 311.058C196.38 311.386 196.278 311.656 196.074 311.868C195.87 312.076 195.542 312.18 195.09 312.18C194.91 312.18 194.722 312.16 194.526 312.12C194.334 312.076 194.134 312.008 193.926 311.916L194.082 311.484C194.282 311.564 194.46 311.622 194.616 311.658C194.776 311.694 194.93 311.712 195.078 311.712C195.326 311.712 195.518 311.66 195.654 311.556C195.794 311.452 195.864 311.282 195.864 311.046V310.95C195.864 310.75 195.806 310.59 195.69 310.47C195.574 310.35 195.396 310.29 195.156 310.29H194.556V309.834H195.156C195.384 309.834 195.552 309.778 195.66 309.666C195.768 309.55 195.822 309.394 195.822 309.198V309.114C195.822 308.878 195.758 308.71 195.63 308.61C195.502 308.506 195.324 308.454 195.096 308.454C194.956 308.454 194.812 308.472 194.664 308.508C194.516 308.54 194.348 308.596 194.16 308.676L193.992 308.238C194.192 308.146 194.384 308.08 194.568 308.04C194.756 308 194.936 307.98 195.108 307.98C195.54 307.98 195.854 308.084 196.05 308.292C196.246 308.5 196.344 308.77 196.344 309.102V309.186C196.344 309.386 196.296 309.562 196.2 309.714C196.104 309.862 195.974 309.978 195.81 310.062C195.986 310.142 196.124 310.26 196.224 310.416C196.328 310.568 196.38 310.75 196.38 310.962V311.058ZM199.998 309.63V310.524C199.998 311.068 199.876 311.48 199.632 311.76C199.388 312.04 199.048 312.18 198.612 312.18C198.176 312.18 197.836 312.04 197.592 311.76C197.352 311.48 197.232 311.068 197.232 310.524V309.63C197.232 309.09 197.354 308.68 197.598 308.4C197.842 308.12 198.18 307.98 198.612 307.98C199.048 307.98 199.388 308.12 199.632 308.4C199.876 308.68 199.998 309.09 199.998 309.63ZM199.47 309.63C199.47 309.214 199.394 308.914 199.242 308.73C199.094 308.546 198.884 308.454 198.612 308.454C198.344 308.454 198.134 308.546 197.982 308.73C197.834 308.914 197.76 309.214 197.76 309.63V310.524C197.76 310.936 197.834 311.238 197.982 311.43C198.134 311.618 198.344 311.712 198.612 311.712C198.884 311.712 199.094 311.618 199.242 311.43C199.394 311.238 199.47 310.936 199.47 310.524V309.63ZM204.463 312.15C204.279 312.15 204.131 312.108 204.019 312.024C203.911 311.94 203.835 311.836 203.791 311.712C203.595 311.884 203.417 312.006 203.257 312.078C203.097 312.146 202.937 312.18 202.777 312.18C202.517 312.18 202.325 312.096 202.201 311.928C202.077 311.76 202.015 311.554 202.015 311.31C202.015 311.146 202.045 311 202.105 310.872C202.165 310.744 202.267 310.644 202.411 310.572C202.555 310.496 202.749 310.458 202.993 310.458C203.101 310.458 203.219 310.466 203.347 310.482C203.475 310.494 203.605 310.51 203.737 310.53V310.128C203.737 309.904 203.687 309.752 203.587 309.672C203.491 309.588 203.349 309.546 203.161 309.546C202.905 309.546 202.619 309.616 202.303 309.756L202.147 309.348C202.331 309.264 202.507 309.2 202.675 309.156C202.843 309.112 203.013 309.09 203.185 309.09C203.465 309.09 203.679 309.136 203.827 309.228C203.975 309.32 204.077 309.442 204.133 309.594C204.189 309.746 204.217 309.912 204.217 310.092V311.376C204.217 311.468 204.235 311.546 204.271 311.61C204.307 311.67 204.379 311.7 204.487 311.7H204.553V312.15H204.463ZM202.501 311.304C202.501 311.44 202.533 311.55 202.597 311.634C202.661 311.718 202.753 311.76 202.873 311.76C202.977 311.76 203.097 311.73 203.233 311.67C203.369 311.606 203.537 311.48 203.737 311.292V310.914C203.465 310.87 203.225 310.848 203.017 310.848C202.833 310.848 202.701 310.886 202.621 310.962C202.541 311.038 202.501 311.152 202.501 311.304ZM206.648 309.552C206.536 309.552 206.41 309.582 206.27 309.642C206.13 309.698 205.954 309.81 205.742 309.978V312.12H205.25V309.15H205.718V309.564C205.93 309.388 206.118 309.266 206.282 309.198C206.446 309.126 206.608 309.09 206.768 309.09C206.956 309.09 207.112 309.134 207.236 309.222C207.36 309.306 207.452 309.428 207.512 309.588C207.732 309.4 207.928 309.27 208.1 309.198C208.276 309.126 208.448 309.09 208.616 309.09C208.88 309.09 209.082 309.178 209.222 309.354C209.362 309.526 209.432 309.772 209.432 310.092V312.12H208.94V310.164C208.94 309.756 208.792 309.552 208.496 309.552C208.384 309.552 208.256 309.582 208.112 309.642C207.972 309.698 207.796 309.81 207.584 309.978C207.588 309.994 207.59 310.012 207.59 310.032C207.59 310.052 207.59 310.072 207.59 310.092V312.12H207.098V310.164C207.098 309.756 206.948 309.552 206.648 309.552Z" fill="#C8B5E0" fill-opacity="0.6"/>
<path d="M248.851 308.604L249.823 308.04H250.297V312.12H249.787V308.592L249.079 309L248.851 308.604ZM251.037 308.604L252.009 308.04H252.483V312.12H251.973V308.592L251.265 309L251.037 308.604ZM253.96 309.702H253.408V309.15H253.96V309.702ZM253.96 312.12H253.408V311.574H253.96V312.12ZM257.485 309.63V310.524C257.485 311.068 257.363 311.48 257.119 311.76C256.875 312.04 256.535 312.18 256.099 312.18C255.663 312.18 255.323 312.04 255.079 311.76C254.839 311.48 254.719 311.068 254.719 310.524V309.63C254.719 309.09 254.841 308.68 255.085 308.4C255.329 308.12 255.667 307.98 256.099 307.98C256.535 307.98 256.875 308.12 257.119 308.4C257.363 308.68 257.485 309.09 257.485 309.63ZM256.957 309.63C256.957 309.214 256.881 308.914 256.729 308.73C256.581 308.546 256.371 308.454 256.099 308.454C255.831 308.454 255.621 308.546 255.469 308.73C255.321 308.914 255.247 309.214 255.247 309.63V310.524C255.247 310.936 255.321 311.238 255.469 311.43C255.621 311.618 255.831 311.712 256.099 311.712C256.371 311.712 256.581 311.618 256.729 311.43C256.881 311.238 256.957 310.936 256.957 310.524V309.63ZM261.164 309.63V310.524C261.164 311.068 261.042 311.48 260.798 311.76C260.554 312.04 260.214 312.18 259.778 312.18C259.342 312.18 259.002 312.04 258.758 311.76C258.518 311.48 258.398 311.068 258.398 310.524V309.63C258.398 309.09 258.52 308.68 258.764 308.4C259.008 308.12 259.346 307.98 259.778 307.98C260.214 307.98 260.554 308.12 260.798 308.4C261.042 308.68 261.164 309.09 261.164 309.63ZM260.636 309.63C260.636 309.214 260.56 308.914 260.408 308.73C260.26 308.546 260.05 308.454 259.778 308.454C259.51 308.454 259.3 308.546 259.148 308.73C259 308.914 258.926 309.214 258.926 309.63V310.524C258.926 310.936 259 311.238 259.148 311.43C259.3 311.618 259.51 311.712 259.778 311.712C260.05 311.712 260.26 311.618 260.408 311.43C260.56 311.238 260.636 310.936 260.636 310.524V309.63ZM265.629 312.15C265.445 312.15 265.297 312.108 265.185 312.024C265.077 311.94 265.001 311.836 264.957 311.712C264.761 311.884 264.583 312.006 264.423 312.078C264.263 312.146 264.103 312.18 263.943 312.18C263.683 312.18 263.491 312.096 263.367 311.928C263.243 311.76 263.181 311.554 263.181 311.31C263.181 311.146 263.211 311 263.271 310.872C263.331 310.744 263.433 310.644 263.577 310.572C263.721 310.496 263.915 310.458 264.159 310.458C264.267 310.458 264.385 310.466 264.513 310.482C264.641 310.494 264.771 310.51 264.903 310.53V310.128C264.903 309.904 264.853 309.752 264.753 309.672C264.657 309.588 264.515 309.546 264.327 309.546C264.071 309.546 263.785 309.616 263.469 309.756L263.313 309.348C263.497 309.264 263.673 309.2 263.841 309.156C264.009 309.112 264.179 309.09 264.351 309.09C264.631 309.09 264.845 309.136 264.993 309.228C265.141 309.32 265.243 309.442 265.299 309.594C265.355 309.746 265.383 309.912 265.383 310.092V311.376C265.383 311.468 265.401 311.546 265.437 311.61C265.473 311.67 265.545 311.7 265.653 311.7H265.719V312.15H265.629ZM263.667 311.304C263.667 311.44 263.699 311.55 263.763 311.634C263.827 311.718 263.919 311.76 264.039 311.76C264.143 311.76 264.263 311.73 264.399 311.67C264.535 311.606 264.703 311.48 264.903 311.292V310.914C264.631 310.87 264.391 310.848 264.183 310.848C263.999 310.848 263.867 310.886 263.787 310.962C263.707 311.038 263.667 311.152 263.667 311.304ZM267.814 309.552C267.702 309.552 267.576 309.582 267.436 309.642C267.296 309.698 267.12 309.81 266.908 309.978V312.12H266.416V309.15H266.884V309.564C267.096 309.388 267.284 309.266 267.448 309.198C267.612 309.126 267.774 309.09 267.934 309.09C268.122 309.09 268.278 309.134 268.402 309.222C268.526 309.306 268.618 309.428 268.678 309.588C268.898 309.4 269.094 309.27 269.266 309.198C269.442 309.126 269.614 309.09 269.782 309.09C270.046 309.09 270.248 309.178 270.388 309.354C270.528 309.526 270.598 309.772 270.598 310.092V312.12H270.106V310.164C270.106 309.756 269.958 309.552 269.662 309.552C269.55 309.552 269.422 309.582 269.278 309.642C269.138 309.698 268.962 309.81 268.75 309.978C268.754 309.994 268.756 310.012 268.756 310.032C268.756 310.052 268.756 310.072 268.756 310.092V312.12H268.264V310.164C268.264 309.756 268.114 309.552 267.814 309.552Z" fill="#C8B5E0" fill-opacity="0.6"/>
<path d="M310.266 308.604L311.238 308.04H311.712V312.12H311.202V308.592L310.494 309L310.266 308.604ZM312.452 308.604L313.424 308.04H313.898V312.12H313.388V308.592L312.68 309L312.452 308.604ZM315.375 309.702H314.823V309.15H315.375V309.702ZM315.375 312.12H314.823V311.574H315.375V312.12ZM318.269 311.058C318.269 311.386 318.167 311.656 317.963 311.868C317.759 312.076 317.431 312.18 316.979 312.18C316.799 312.18 316.611 312.16 316.415 312.12C316.223 312.076 316.023 312.008 315.815 311.916L315.971 311.484C316.171 311.564 316.349 311.622 316.505 311.658C316.665 311.694 316.819 311.712 316.967 311.712C317.215 311.712 317.407 311.66 317.543 311.556C317.683 311.452 317.753 311.282 317.753 311.046V310.95C317.753 310.75 317.695 310.59 317.579 310.47C317.463 310.35 317.285 310.29 317.045 310.29H316.445V309.834H317.045C317.273 309.834 317.441 309.778 317.549 309.666C317.657 309.55 317.711 309.394 317.711 309.198V309.114C317.711 308.878 317.647 308.71 317.519 308.61C317.391 308.506 317.213 308.454 316.985 308.454C316.845 308.454 316.701 308.472 316.553 308.508C316.405 308.54 316.237 308.596 316.049 308.676L315.881 308.238C316.081 308.146 316.273 308.08 316.457 308.04C316.645 308 316.825 307.98 316.997 307.98C317.429 307.98 317.743 308.084 317.939 308.292C318.135 308.5 318.233 308.77 318.233 309.102V309.186C318.233 309.386 318.185 309.562 318.089 309.714C317.993 309.862 317.863 309.978 317.699 310.062C317.875 310.142 318.013 310.26 318.113 310.416C318.217 310.568 318.269 310.75 318.269 310.962V311.058ZM321.888 309.63V310.524C321.888 311.068 321.766 311.48 321.522 311.76C321.278 312.04 320.938 312.18 320.502 312.18C320.066 312.18 319.726 312.04 319.482 311.76C319.242 311.48 319.122 311.068 319.122 310.524V309.63C319.122 309.09 319.244 308.68 319.488 308.4C319.732 308.12 320.07 307.98 320.502 307.98C320.938 307.98 321.278 308.12 321.522 308.4C321.766 308.68 321.888 309.09 321.888 309.63ZM321.36 309.63C321.36 309.214 321.284 308.914 321.132 308.73C320.984 308.546 320.774 308.454 320.502 308.454C320.234 308.454 320.024 308.546 319.872 308.73C319.724 308.914 319.65 309.214 319.65 309.63V310.524C319.65 310.936 319.724 311.238 319.872 311.43C320.024 311.618 320.234 311.712 320.502 311.712C320.774 311.712 320.984 311.618 321.132 311.43C321.284 311.238 321.36 310.936 321.36 310.524V309.63ZM326.352 312.15C326.168 312.15 326.02 312.108 325.908 312.024C325.8 311.94 325.724 311.836 325.68 311.712C325.484 311.884 325.306 312.006 325.146 312.078C324.986 312.146 324.826 312.18 324.666 312.18C324.406 312.18 324.214 312.096 324.09 311.928C323.966 311.76 323.904 311.554 323.904 311.31C323.904 311.146 323.934 311 323.994 310.872C324.054 310.744 324.156 310.644 324.3 310.572C324.444 310.496 324.638 310.458 324.882 310.458C324.99 310.458 325.108 310.466 325.236 310.482C325.364 310.494 325.494 310.51 325.626 310.53V310.128C325.626 309.904 325.576 309.752 325.476 309.672C325.38 309.588 325.238 309.546 325.05 309.546C324.794 309.546 324.508 309.616 324.192 309.756L324.036 309.348C324.22 309.264 324.396 309.2 324.564 309.156C324.732 309.112 324.902 309.09 325.074 309.09C325.354 309.09 325.568 309.136 325.716 309.228C325.864 309.32 325.966 309.442 326.022 309.594C326.078 309.746 326.106 309.912 326.106 310.092V311.376C326.106 311.468 326.124 311.546 326.16 311.61C326.196 311.67 326.268 311.7 326.376 311.7H326.442V312.15H326.352ZM324.39 311.304C324.39 311.44 324.422 311.55 324.486 311.634C324.55 311.718 324.642 311.76 324.762 311.76C324.866 311.76 324.986 311.73 325.122 311.67C325.258 311.606 325.426 311.48 325.626 311.292V310.914C325.354 310.87 325.114 310.848 324.906 310.848C324.722 310.848 324.59 310.886 324.51 310.962C324.43 311.038 324.39 311.152 324.39 311.304ZM328.537 309.552C328.425 309.552 328.299 309.582 328.159 309.642C328.019 309.698 327.843 309.81 327.631 309.978V312.12H327.139V309.15H327.607V309.564C327.819 309.388 328.007 309.266 328.171 309.198C328.335 309.126 328.497 309.09 328.657 309.09C328.845 309.09 329.001 309.134 329.125 309.222C329.249 309.306 329.341 309.428 329.401 309.588C329.621 309.4 329.817 309.27 329.989 309.198C330.165 309.126 330.337 309.09 330.505 309.09C330.769 309.09 330.971 309.178 331.111 309.354C331.251 309.526 331.321 309.772 331.321 310.092V312.12H330.829V310.164C330.829 309.756 330.681 309.552 330.385 309.552C330.273 309.552 330.145 309.582 330.001 309.642C329.861 309.698 329.685 309.81 329.473 309.978C329.477 309.994 329.479 310.012 329.479 310.032C329.479 310.052 329.479 310.072 329.479 310.092V312.12H328.987V310.164C328.987 309.756 328.837 309.552 328.537 309.552Z" fill="#C8B5E0" fill-opacity="0.6"/>
<path d="M371.923 308.604L372.895 308.04H373.369V312.12H372.859V308.592L372.151 309L371.923 308.604ZM376.616 312.12H374.288V311.724C374.288 311.424 374.324 311.172 374.396 310.968C374.472 310.764 374.572 310.596 374.696 310.464C374.824 310.328 374.966 310.22 375.122 310.14L375.512 309.942C375.696 309.846 375.842 309.746 375.95 309.642C376.062 309.538 376.118 309.388 376.118 309.192V309.09C376.118 308.866 376.054 308.704 375.926 308.604C375.802 308.504 375.618 308.454 375.374 308.454C375.238 308.454 375.094 308.472 374.942 308.508C374.79 308.54 374.622 308.596 374.438 308.676L374.27 308.238C374.47 308.146 374.662 308.08 374.846 308.04C375.034 308 375.214 307.98 375.386 307.98C375.83 307.98 376.148 308.084 376.34 308.292C376.532 308.496 376.628 308.762 376.628 309.09V309.192C376.628 309.408 376.586 309.588 376.502 309.732C376.422 309.876 376.314 309.998 376.178 310.098C376.046 310.194 375.904 310.28 375.752 310.356L375.362 310.56C375.174 310.66 375.034 310.798 374.942 310.974C374.854 311.15 374.806 311.374 374.798 311.646H376.616V312.12ZM377.817 309.702H377.265V309.15H377.817V309.702ZM377.817 312.12H377.265V311.574H377.817V312.12ZM381.341 309.63V310.524C381.341 311.068 381.219 311.48 380.975 311.76C380.731 312.04 380.391 312.18 379.955 312.18C379.519 312.18 379.179 312.04 378.935 311.76C378.695 311.48 378.575 311.068 378.575 310.524V309.63C378.575 309.09 378.697 308.68 378.941 308.4C379.185 308.12 379.523 307.98 379.955 307.98C380.391 307.98 380.731 308.12 380.975 308.4C381.219 308.68 381.341 309.09 381.341 309.63ZM380.813 309.63C380.813 309.214 380.737 308.914 380.585 308.73C380.437 308.546 380.227 308.454 379.955 308.454C379.687 308.454 379.477 308.546 379.325 308.73C379.177 308.914 379.103 309.214 379.103 309.63V310.524C379.103 310.936 379.177 311.238 379.325 311.43C379.477 311.618 379.687 311.712 379.955 311.712C380.227 311.712 380.437 311.618 380.585 311.43C380.737 311.238 380.813 310.936 380.813 310.524V309.63ZM385.021 309.63V310.524C385.021 311.068 384.899 311.48 384.655 311.76C384.411 312.04 384.071 312.18 383.635 312.18C383.199 312.18 382.859 312.04 382.615 311.76C382.375 311.48 382.255 311.068 382.255 310.524V309.63C382.255 309.09 382.377 308.68 382.621 308.4C382.865 308.12 383.203 307.98 383.635 307.98C384.071 307.98 384.411 308.12 384.655 308.4C384.899 308.68 385.021 309.09 385.021 309.63ZM384.493 309.63C384.493 309.214 384.417 308.914 384.265 308.73C384.117 308.546 383.907 308.454 383.635 308.454C383.367 308.454 383.157 308.546 383.005 308.73C382.857 308.914 382.783 309.214 382.783 309.63V310.524C382.783 310.936 382.857 311.238 383.005 311.43C383.157 311.618 383.367 311.712 383.635 311.712C383.907 311.712 384.117 311.618 384.265 311.43C384.417 311.238 384.493 310.936 384.493 310.524V309.63ZM388.501 312.18C388.277 312.18 388.045 312.134 387.805 312.042V313.398H387.313V309.15H387.781V309.57C387.965 309.394 388.133 309.27 388.285 309.198C388.437 309.126 388.593 309.09 388.753 309.09C389.069 309.09 389.311 309.21 389.479 309.45C389.651 309.69 389.737 310.028 389.737 310.464V310.812C389.737 311.228 389.631 311.56 389.419 311.808C389.211 312.056 388.905 312.18 388.501 312.18ZM388.633 309.552C388.517 309.552 388.397 309.582 388.273 309.642C388.149 309.702 387.993 309.824 387.805 310.008V311.592C387.921 311.644 388.033 311.682 388.141 311.706C388.249 311.726 388.355 311.736 388.459 311.736C388.731 311.736 388.927 311.654 389.047 311.49C389.167 311.322 389.227 311.096 389.227 310.812V310.464C389.227 310.152 389.177 309.922 389.077 309.774C388.981 309.626 388.833 309.552 388.633 309.552ZM392.045 309.552C391.933 309.552 391.807 309.582 391.667 309.642C391.527 309.698 391.351 309.81 391.139 309.978V312.12H390.647V309.15H391.115V309.564C391.327 309.388 391.515 309.266 391.679 309.198C391.843 309.126 392.005 309.09 392.165 309.09C392.353 309.09 392.509 309.134 392.633 309.222C392.757 309.306 392.849 309.428 392.909 309.588C393.129 309.4 393.325 309.27 393.497 309.198C393.673 309.126 393.845 309.09 394.013 309.09C394.277 309.09 394.479 309.178 394.619 309.354C394.759 309.526 394.829 309.772 394.829 310.092V312.12H394.337V310.164C394.337 309.756 394.189 309.552 393.893 309.552C393.781 309.552 393.653 309.582 393.509 309.642C393.369 309.698 393.193 309.81 392.981 309.978C392.985 309.994 392.987 310.012 392.987 310.032C392.987 310.052 392.987 310.072 392.987 310.092V312.12H392.495V310.164C392.495 309.756 392.345 309.552 392.045 309.552Z" fill="#C8B5E0" fill-opacity="0.6"/>
<path d="M433.337 308.604L434.309 308.04H434.783V312.12H434.273V308.592L433.565 309L433.337 308.604ZM438.03 312.12H435.702V311.724C435.702 311.424 435.738 311.172 435.81 310.968C435.886 310.764 435.986 310.596 436.11 310.464C436.238 310.328 436.38 310.22 436.536 310.14L436.926 309.942C437.11 309.846 437.256 309.746 437.364 309.642C437.476 309.538 437.532 309.388 437.532 309.192V309.09C437.532 308.866 437.468 308.704 437.34 308.604C437.216 308.504 437.032 308.454 436.788 308.454C436.652 308.454 436.508 308.472 436.356 308.508C436.204 308.54 436.036 308.596 435.852 308.676L435.684 308.238C435.884 308.146 436.076 308.08 436.26 308.04C436.448 308 436.628 307.98 436.8 307.98C437.244 307.98 437.562 308.084 437.754 308.292C437.946 308.496 438.042 308.762 438.042 309.09V309.192C438.042 309.408 438 309.588 437.916 309.732C437.836 309.876 437.728 309.998 437.592 310.098C437.46 310.194 437.318 310.28 437.166 310.356L436.776 310.56C436.588 310.66 436.448 310.798 436.356 310.974C436.268 311.15 436.22 311.374 436.212 311.646H438.03V312.12ZM439.231 309.702H438.679V309.15H439.231V309.702ZM439.231 312.12H438.679V311.574H439.231V312.12ZM442.126 311.058C442.126 311.386 442.024 311.656 441.82 311.868C441.616 312.076 441.288 312.18 440.836 312.18C440.656 312.18 440.468 312.16 440.272 312.12C440.08 312.076 439.88 312.008 439.672 311.916L439.828 311.484C440.028 311.564 440.206 311.622 440.362 311.658C440.522 311.694 440.676 311.712 440.824 311.712C441.072 311.712 441.264 311.66 441.4 311.556C441.54 311.452 441.61 311.282 441.61 311.046V310.95C441.61 310.75 441.552 310.59 441.436 310.47C441.32 310.35 441.142 310.29 440.902 310.29H440.302V309.834H440.902C441.13 309.834 441.298 309.778 441.406 309.666C441.514 309.55 441.568 309.394 441.568 309.198V309.114C441.568 308.878 441.504 308.71 441.376 308.61C441.248 308.506 441.07 308.454 440.842 308.454C440.702 308.454 440.558 308.472 440.41 308.508C440.262 308.54 440.094 308.596 439.906 308.676L439.738 308.238C439.938 308.146 440.13 308.08 440.314 308.04C440.502 308 440.682 307.98 440.854 307.98C441.286 307.98 441.6 308.084 441.796 308.292C441.992 308.5 442.09 308.77 442.09 309.102V309.186C442.09 309.386 442.042 309.562 441.946 309.714C441.85 309.862 441.72 309.978 441.556 310.062C441.732 310.142 441.87 310.26 441.97 310.416C442.074 310.568 442.126 310.75 442.126 310.962V311.058ZM445.744 309.63V310.524C445.744 311.068 445.622 311.48 445.378 311.76C445.134 312.04 444.794 312.18 444.358 312.18C443.922 312.18 443.582 312.04 443.338 311.76C443.098 311.48 442.978 311.068 442.978 310.524V309.63C442.978 309.09 443.1 308.68 443.344 308.4C443.588 308.12 443.926 307.98 444.358 307.98C444.794 307.98 445.134 308.12 445.378 308.4C445.622 308.68 445.744 309.09 445.744 309.63ZM445.216 309.63C445.216 309.214 445.14 308.914 444.988 308.73C444.84 308.546 444.63 308.454 444.358 308.454C444.09 308.454 443.88 308.546 443.728 308.73C443.58 308.914 443.506 309.214 443.506 309.63V310.524C443.506 310.936 443.58 311.238 443.728 311.43C443.88 311.618 444.09 311.712 444.358 311.712C444.63 311.712 444.84 311.618 444.988 311.43C445.14 311.238 445.216 310.936 445.216 310.524V309.63ZM449.224 312.18C449 312.18 448.768 312.134 448.528 312.042V313.398H448.036V309.15H448.504V309.57C448.688 309.394 448.856 309.27 449.008 309.198C449.16 309.126 449.316 309.09 449.476 309.09C449.792 309.09 450.034 309.21 450.202 309.45C450.374 309.69 450.46 310.028 450.46 310.464V310.812C450.46 311.228 450.354 311.56 450.142 311.808C449.934 312.056 449.628 312.18 449.224 312.18ZM449.356 309.552C449.24 309.552 449.12 309.582 448.996 309.642C448.872 309.702 448.716 309.824 448.528 310.008V311.592C448.644 311.644 448.756 311.682 448.864 311.706C448.972 311.726 449.078 311.736 449.182 311.736C449.454 311.736 449.65 311.654 449.77 311.49C449.89 311.322 449.95 311.096 449.95 310.812V310.464C449.95 310.152 449.9 309.922 449.8 309.774C449.704 309.626 449.556 309.552 449.356 309.552ZM452.768 309.552C452.656 309.552 452.53 309.582 452.39 309.642C452.25 309.698 452.074 309.81 451.862 309.978V312.12H451.37V309.15H451.838V309.564C452.05 309.388 452.238 309.266 452.402 309.198C452.566 309.126 452.728 309.09 452.888 309.09C453.076 309.09 453.232 309.134 453.356 309.222C453.48 309.306 453.572 309.428 453.632 309.588C453.852 309.4 454.048 309.27 454.22 309.198C454.396 309.126 454.568 309.09 454.736 309.09C455 309.09 455.202 309.178 455.342 309.354C455.482 309.526 455.552 309.772 455.552 310.092V312.12H455.06V310.164C455.06 309.756 454.912 309.552 454.616 309.552C454.504 309.552 454.376 309.582 454.232 309.642C454.092 309.698 453.916 309.81 453.704 309.978C453.708 309.994 453.71 310.012 453.71 310.032C453.71 310.052 453.71 310.072 453.71 310.092V312.12H453.218V310.164C453.218 309.756 453.068 309.552 452.768 309.552Z" fill="#C8B5E0" fill-opacity="0.6"/>
<path d="M496.05 308.604L497.022 308.04H497.496V312.12H496.986V308.592L496.278 309L496.05 308.604ZM498.973 309.702H498.421V309.15H498.973V309.702ZM498.973 312.12H498.421V311.574H498.973V312.12ZM502.497 309.63V310.524C502.497 311.068 502.375 311.48 502.131 311.76C501.887 312.04 501.547 312.18 501.111 312.18C500.675 312.18 500.335 312.04 500.091 311.76C499.851 311.48 499.731 311.068 499.731 310.524V309.63C499.731 309.09 499.853 308.68 500.097 308.4C500.341 308.12 500.679 307.98 501.111 307.98C501.547 307.98 501.887 308.12 502.131 308.4C502.375 308.68 502.497 309.09 502.497 309.63ZM501.969 309.63C501.969 309.214 501.893 308.914 501.741 308.73C501.593 308.546 501.383 308.454 501.111 308.454C500.843 308.454 500.633 308.546 500.481 308.73C500.333 308.914 500.259 309.214 500.259 309.63V310.524C500.259 310.936 500.333 311.238 500.481 311.43C500.633 311.618 500.843 311.712 501.111 311.712C501.383 311.712 501.593 311.618 501.741 311.43C501.893 311.238 501.969 310.936 501.969 310.524V309.63ZM506.177 309.63V310.524C506.177 311.068 506.055 311.48 505.811 311.76C505.567 312.04 505.227 312.18 504.791 312.18C504.355 312.18 504.015 312.04 503.771 311.76C503.531 311.48 503.411 311.068 503.411 310.524V309.63C503.411 309.09 503.533 308.68 503.777 308.4C504.021 308.12 504.359 307.98 504.791 307.98C505.227 307.98 505.567 308.12 505.811 308.4C506.055 308.68 506.177 309.09 506.177 309.63ZM505.649 309.63C505.649 309.214 505.573 308.914 505.421 308.73C505.273 308.546 505.063 308.454 504.791 308.454C504.523 308.454 504.313 308.546 504.161 308.73C504.013 308.914 503.939 309.214 503.939 309.63V310.524C503.939 310.936 504.013 311.238 504.161 311.43C504.313 311.618 504.523 311.712 504.791 311.712C505.063 311.712 505.273 311.618 505.421 311.43C505.573 311.238 505.649 310.936 505.649 310.524V309.63ZM509.657 312.18C509.433 312.18 509.201 312.134 508.961 312.042V313.398H508.469V309.15H508.937V309.57C509.121 309.394 509.289 309.27 509.441 309.198C509.593 309.126 509.749 309.09 509.909 309.09C510.225 309.09 510.467 309.21 510.635 309.45C510.807 309.69 510.893 310.028 510.893 310.464V310.812C510.893 311.228 510.787 311.56 510.575 311.808C510.367 312.056 510.061 312.18 509.657 312.18ZM509.789 309.552C509.673 309.552 509.553 309.582 509.429 309.642C509.305 309.702 509.149 309.824 508.961 310.008V311.592C509.077 311.644 509.189 311.682 509.297 311.706C509.405 311.726 509.511 311.736 509.615 311.736C509.887 311.736 510.083 311.654 510.203 311.49C510.323 311.322 510.383 311.096 510.383 310.812V310.464C510.383 310.152 510.333 309.922 510.233 309.774C510.137 309.626 509.989 309.552 509.789 309.552ZM513.201 309.552C513.089 309.552 512.963 309.582 512.823 309.642C512.683 309.698 512.507 309.81 512.295 309.978V312.12H511.803V309.15H512.271V309.564C512.483 309.388 512.671 309.266 512.835 309.198C512.999 309.126 513.161 309.09 513.321 309.09C513.509 309.09 513.665 309.134 513.789 309.222C513.913 309.306 514.005 309.428 514.065 309.588C514.285 309.4 514.481 309.27 514.653 309.198C514.829 309.126 515.001 309.09 515.169 309.09C515.433 309.09 515.635 309.178 515.775 309.354C515.915 309.526 515.985 309.772 515.985 310.092V312.12H515.493V310.164C515.493 309.756 515.345 309.552 515.049 309.552C514.937 309.552 514.809 309.582 514.665 309.642C514.525 309.698 514.349 309.81 514.137 309.978C514.141 309.994 514.143 310.012 514.143 310.032C514.143 310.052 514.143 310.072 514.143 310.092V312.12H513.651V310.164C513.651 309.756 513.501 309.552 513.201 309.552Z" fill="#C8B5E0" fill-opacity="0.6"/>
<path d="M74.4417 132.072L75.8997 131.226H76.6107V137.346H75.8457V132.054L74.7837 132.666L74.4417 132.072ZM78.1786 134.16L78.3586 131.226H81.4006V131.946H79.0516L78.9436 133.701C79.2076 133.611 79.4926 133.566 79.7986 133.566C80.3626 133.566 80.8126 133.716 81.1486 134.016C81.4846 134.316 81.6526 134.76 81.6526 135.348V135.618C81.6526 136.152 81.4966 136.59 81.1846 136.932C80.8726 137.268 80.3716 137.436 79.6816 137.436C79.4116 137.436 79.1296 137.406 78.8356 137.346C78.5476 137.28 78.2476 137.178 77.9356 137.04L78.1786 136.392C78.4726 136.518 78.7396 136.608 78.9796 136.662C79.2196 136.71 79.4506 136.734 79.6726 136.734C80.0446 136.734 80.3356 136.65 80.5456 136.482C80.7556 136.308 80.8606 136.02 80.8606 135.618V135.348C80.8606 135.018 80.7646 134.754 80.5726 134.556C80.3866 134.358 80.1016 134.259 79.7176 134.259C79.5376 134.259 79.3606 134.283 79.1866 134.331C79.0126 134.373 78.8296 134.436 78.6376 134.52L78.1786 134.16ZM86.9611 133.611V134.952C86.9611 135.768 86.7781 136.386 86.4121 136.806C86.0461 137.226 85.5361 137.436 84.8821 137.436C84.2281 137.436 83.7181 137.226 83.3521 136.806C82.9921 136.386 82.8121 135.768 82.8121 134.952V133.611C82.8121 132.801 82.9951 132.186 83.3611 131.766C83.7271 131.346 84.2341 131.136 84.8821 131.136C85.5361 131.136 86.0461 131.346 86.4121 131.766C86.7781 132.186 86.9611 132.801 86.9611 133.611ZM86.1691 133.611C86.1691 132.987 86.0551 132.537 85.8271 132.261C85.6051 131.985 85.2901 131.847 84.8821 131.847C84.4801 131.847 84.1651 131.985 83.9371 132.261C83.7151 132.537 83.6041 132.987 83.6041 133.611V134.952C83.6041 135.57 83.7151 136.023 83.9371 136.311C84.1651 136.593 84.4801 136.734 84.8821 136.734C85.2901 136.734 85.6051 136.593 85.8271 136.311C86.0551 136.023 86.1691 135.57 86.1691 134.952V133.611ZM90.5367 133.494C90.3687 133.494 90.1797 133.539 89.9697 133.629C89.7597 133.713 89.4957 133.881 89.1777 134.133V137.346H88.4397V132.891H89.1417V133.512C89.4597 133.248 89.7417 133.065 89.9877 132.963C90.2337 132.855 90.4767 132.801 90.7167 132.801C90.9987 132.801 91.2327 132.867 91.4187 132.999C91.6047 133.125 91.7427 133.308 91.8327 133.548C92.1627 133.266 92.4567 133.071 92.7147 132.963C92.9787 132.855 93.2367 132.801 93.4887 132.801C93.8847 132.801 94.1877 132.933 94.3977 133.197C94.6077 133.455 94.7127 133.824 94.7127 134.304V137.346H93.9747V134.412C93.9747 133.8 93.7527 133.494 93.3087 133.494C93.1407 133.494 92.9487 133.539 92.7327 133.629C92.5227 133.713 92.2587 133.881 91.9407 134.133C91.9467 134.157 91.9497 134.184 91.9497 134.214C91.9497 134.244 91.9497 134.274 91.9497 134.304V137.346H91.2117V134.412C91.2117 133.8 90.9867 133.494 90.5367 133.494ZM97.3509 136.779C97.9509 136.779 98.2509 136.575 98.2509 136.167C98.2509 135.993 98.1969 135.855 98.0889 135.753C97.9809 135.651 97.7829 135.564 97.4949 135.492L96.9999 135.366C96.6339 135.276 96.3609 135.12 96.1809 134.898C96.0009 134.67 95.9109 134.4 95.9109 134.088C95.9109 133.86 95.9619 133.65 96.0639 133.458C96.1659 133.26 96.3279 133.101 96.5499 132.981C96.7719 132.861 97.0599 132.801 97.4139 132.801C97.6419 132.801 97.8729 132.828 98.1069 132.882C98.3469 132.93 98.5899 133.014 98.8359 133.134L98.6019 133.755C98.1639 133.557 97.7679 133.458 97.4139 133.458C96.8919 133.458 96.6309 133.653 96.6309 134.043C96.6309 134.193 96.6789 134.322 96.7749 134.43C96.8709 134.538 97.0509 134.625 97.3149 134.691L97.8099 134.817C98.2059 134.913 98.4969 135.069 98.6829 135.285C98.8689 135.501 98.9619 135.78 98.9619 136.122C98.9619 136.368 98.9079 136.593 98.7999 136.797C98.6979 136.995 98.5299 137.151 98.2959 137.265C98.0679 137.379 97.7589 137.436 97.3689 137.436C97.1109 137.436 96.8529 137.409 96.5949 137.355C96.3429 137.301 96.0819 137.214 95.8119 137.094L96.0099 136.482C96.2679 136.584 96.5019 136.659 96.7119 136.707C96.9219 136.755 97.1349 136.779 97.3509 136.779Z" fill="#C8B5E0" fill-opacity="0.6"/>
<path d="M67.6299 258.509L70.0156 257.645L71.8781 248.293L77.1728 255.054L82.2342 251.6H86.7158L89.2397 245.341L92.2856 243.373L93.8086 235.993L101.03 246.418L105.078 226.645L110.573 242.964L116.653 242.389L119.394 237.783L122.44 239.929L124.888 237.783L129.659 236.055L133.71 239.929L139.202 232.601L143.152 216.805L150.158 224.229H157.519L164.169 220.741L171.886 231.653L178.484 236.055H189.45L193.409 243.373L197.014 244.937L199.501 230.581L206.507 240.913L214.147 241.985L222.041 239.437L224.782 249.277L230.264 246.817L233.006 254.197L236.661 258.133L243.057 253.213L246.408 243.373L251.281 256.657L256.155 260.593L261.637 271.417L271.689 258.133L282.654 256.657L291.791 246.817L298.492 232.601L308.544 217.789L313.722 221.725L318.595 212.869L321.489 208.933L323.773 196.141L327.276 201.061L330.17 197.125L336.566 168.097L345.399 183.349L350.577 166.129L363.065 142.021L372.396 192.911L381.645 205.318H390.311L399.616 198.109L408.225 217.724L416.978 230.131L424.288 217.724L428.247 233.533L435.558 230.131L444.055 242.538L462.361 259.609L479.885 267.352L489.47 261.085L492.516 245.341L497.694 257.149L504.09 249.769L512.009 239.929L513.532 221.725L519.624 247.309L524.887 214.293V296.092H67.6299V258.509Z" fill="url(#paint1_linear_388_71)" fill-opacity="0.6"/>
<path d="M70.1709 111.085V104.562H67.7839V103.462H73.8999V104.562H71.5129V111.085H70.1709ZM76.6749 111.25C75.8242 111.25 75.1606 110.989 74.6839 110.469C74.2072 109.941 73.9689 109.211 73.9689 108.28C73.9689 107.348 74.2072 106.622 74.6839 106.102C75.1606 105.581 75.8242 105.321 76.6749 105.321C77.5256 105.321 78.1892 105.581 78.6659 106.102C79.1426 106.622 79.3809 107.348 79.3809 108.28C79.3809 109.211 79.1426 109.941 78.6659 110.469C78.1892 110.989 77.5256 111.25 76.6749 111.25ZM76.6749 110.227C77.5989 110.227 78.0609 109.578 78.0609 108.28C78.0609 106.989 77.5989 106.344 76.6749 106.344C75.7509 106.344 75.2889 106.989 75.2889 108.28C75.2889 109.578 75.7509 110.227 76.6749 110.227ZM80.6787 111.085V102.945H81.9767V107.906L84.1767 105.486H85.7387L83.2197 108.159L85.9147 111.085H84.3087L81.9767 108.478V111.085H80.6787ZM88.351 111.151L86.162 105.486H87.548L88.967 109.919L90.408 105.486H91.739L89.231 111.976C89.0256 112.511 88.7836 112.896 88.505 113.131C88.2263 113.365 87.8633 113.483 87.416 113.483C87.086 113.483 86.778 113.428 86.492 113.318V112.416C86.668 112.452 86.855 112.471 87.053 112.471C87.3683 112.471 87.603 112.412 87.757 112.295C87.911 112.185 88.0613 111.932 88.208 111.536L88.351 111.151ZM94.9259 111.25C94.0752 111.25 93.4115 110.989 92.9349 110.469C92.4582 109.941 92.2199 109.211 92.2199 108.28C92.2199 107.348 92.4582 106.622 92.9349 106.102C93.4115 105.581 94.0752 105.321 94.9259 105.321C95.7765 105.321 96.4402 105.581 96.9169 106.102C97.3935 106.622 97.6319 107.348 97.6319 108.28C97.6319 109.211 97.3935 109.941 96.9169 110.469C96.4402 110.989 95.7765 111.25 94.9259 111.25ZM94.9259 110.227C95.8499 110.227 96.3119 109.578 96.3119 108.28C96.3119 106.989 95.8499 106.344 94.9259 106.344C94.0019 106.344 93.5399 106.989 93.5399 108.28C93.5399 109.578 94.0019 110.227 94.9259 110.227ZM103.184 112.669C102.7 111.965 102.326 111.187 102.062 110.337C101.805 109.486 101.677 108.617 101.677 107.73C101.677 106.842 101.805 105.973 102.062 105.123C102.326 104.272 102.7 103.495 103.184 102.791H104.427C103.972 103.495 103.627 104.268 103.393 105.112C103.158 105.948 103.041 106.82 103.041 107.73C103.041 108.639 103.158 109.515 103.393 110.359C103.627 111.195 103.972 111.965 104.427 112.669H103.184ZM108.674 111.085L108.575 110.546C108.318 110.766 108.032 110.938 107.717 111.063C107.409 111.187 107.101 111.25 106.793 111.25C106.28 111.25 105.862 111.096 105.539 110.788C105.224 110.48 105.066 110.08 105.066 109.589C105.066 109.046 105.26 108.613 105.649 108.291C106.045 107.968 106.573 107.807 107.233 107.807C107.622 107.807 108.047 107.862 108.509 107.972V107.323C108.509 106.949 108.428 106.688 108.267 106.542C108.106 106.395 107.823 106.322 107.42 106.322C106.848 106.322 106.192 106.443 105.451 106.685V105.772C105.722 105.632 106.052 105.522 106.441 105.442C106.837 105.361 107.233 105.321 107.629 105.321C108.348 105.321 108.876 105.467 109.213 105.761C109.558 106.054 109.73 106.512 109.73 107.136V111.085H108.674ZM107.156 110.326C107.369 110.326 107.592 110.282 107.827 110.194C108.062 110.098 108.289 109.966 108.509 109.798V108.742C108.12 108.661 107.776 108.621 107.475 108.621C106.712 108.621 106.331 108.918 106.331 109.512C106.331 109.768 106.404 109.97 106.551 110.117C106.698 110.256 106.899 110.326 107.156 110.326ZM111.283 113.351V105.486H112.361L112.482 106.047C112.739 105.812 113.021 105.632 113.329 105.508C113.645 105.383 113.971 105.321 114.308 105.321C115.005 105.321 115.559 105.581 115.969 106.102C116.387 106.622 116.596 107.323 116.596 108.203C116.596 108.789 116.501 109.31 116.31 109.765C116.12 110.212 115.845 110.564 115.485 110.821C115.126 111.077 114.704 111.206 114.22 111.206C113.912 111.206 113.615 111.154 113.329 111.052C113.043 110.942 112.794 110.791 112.581 110.601V113.351H111.283ZM113.901 106.344C113.425 106.344 112.985 106.483 112.581 106.762V109.754C112.992 110.04 113.428 110.183 113.89 110.183C114.36 110.183 114.708 110.025 114.935 109.71C115.163 109.387 115.276 108.899 115.276 108.247C115.276 107.601 115.163 107.125 114.935 106.817C114.715 106.501 114.371 106.344 113.901 106.344ZM117.582 108.797V107.686H120.948V108.797H117.582ZM125.926 111.085V107.378C125.926 107.018 125.852 106.758 125.706 106.597C125.559 106.428 125.324 106.344 125.002 106.344C124.518 106.344 124.023 106.505 123.517 106.828V111.085H122.219V105.486H123.297L123.429 106.102C124.118 105.581 124.837 105.321 125.585 105.321C126.12 105.321 126.527 105.464 126.806 105.75C127.084 106.028 127.224 106.435 127.224 106.971V111.085H125.926ZM131.191 111.25C130.341 111.25 129.677 110.989 129.2 110.469C128.724 109.941 128.485 109.211 128.485 108.28C128.485 107.348 128.724 106.622 129.2 106.102C129.677 105.581 130.341 105.321 131.191 105.321C132.042 105.321 132.706 105.581 133.182 106.102C133.659 106.622 133.897 107.348 133.897 108.28C133.897 109.211 133.659 109.941 133.182 110.469C132.706 110.989 132.042 111.25 131.191 111.25ZM131.191 110.227C132.115 110.227 132.577 109.578 132.577 108.28C132.577 106.989 132.115 106.344 131.191 106.344C130.267 106.344 129.805 106.989 129.805 108.28C129.805 109.578 130.267 110.227 131.191 110.227ZM135.195 111.085V105.486H136.273L136.449 106.322C136.743 105.999 137.018 105.772 137.274 105.64C137.531 105.508 137.81 105.442 138.11 105.442C138.25 105.442 138.4 105.453 138.561 105.475V106.663C138.356 106.626 138.147 106.608 137.934 106.608C137.392 106.608 136.911 106.747 136.493 107.026V111.085H135.195ZM143.038 110.953C142.656 111.092 142.246 111.162 141.806 111.162C141.226 111.162 140.797 111.026 140.519 110.755C140.24 110.483 140.101 110.069 140.101 109.512V106.476H139.155V105.662L140.145 105.519L140.343 103.946H141.399V105.486H142.994V106.476H141.399V109.446C141.399 109.695 141.457 109.875 141.575 109.985C141.699 110.087 141.905 110.139 142.191 110.139C142.499 110.139 142.781 110.109 143.038 110.051V110.953ZM147.786 111.085V107.378C147.786 107.018 147.713 106.758 147.566 106.597C147.419 106.428 147.185 106.344 146.862 106.344C146.378 106.344 145.883 106.505 145.377 106.828V111.085H144.079V102.945H145.377V106.036C146.059 105.559 146.748 105.321 147.445 105.321C147.98 105.321 148.387 105.464 148.666 105.75C148.945 106.028 149.084 106.435 149.084 106.971V111.085H147.786ZM151.545 108.599C151.567 109.156 151.721 109.567 152.007 109.831C152.3 110.087 152.748 110.216 153.349 110.216C153.892 110.216 154.478 110.113 155.109 109.908V110.821C154.86 110.953 154.563 111.055 154.218 111.129C153.881 111.209 153.529 111.25 153.162 111.25C152.238 111.25 151.538 111 151.061 110.502C150.584 110.003 150.346 109.277 150.346 108.324C150.346 107.378 150.577 106.641 151.039 106.113C151.508 105.585 152.161 105.321 152.997 105.321C153.716 105.321 154.266 105.519 154.647 105.915C155.036 106.303 155.23 106.857 155.23 107.576C155.23 107.957 155.197 108.298 155.131 108.599H151.545ZM152.942 106.267C152.546 106.267 152.223 106.399 151.974 106.663C151.725 106.927 151.582 107.282 151.545 107.73H154.086V107.642C154.086 107.194 153.987 106.853 153.789 106.619C153.598 106.384 153.316 106.267 152.942 106.267ZM159.753 111.085L159.654 110.546C159.397 110.766 159.111 110.938 158.796 111.063C158.488 111.187 158.18 111.25 157.872 111.25C157.359 111.25 156.941 111.096 156.618 110.788C156.303 110.48 156.145 110.08 156.145 109.589C156.145 109.046 156.339 108.613 156.728 108.291C157.124 107.968 157.652 107.807 158.312 107.807C158.701 107.807 159.126 107.862 159.588 107.972V107.323C159.588 106.949 159.507 106.688 159.346 106.542C159.185 106.395 158.902 106.322 158.499 106.322C157.927 106.322 157.271 106.443 156.53 106.685V105.772C156.801 105.632 157.131 105.522 157.52 105.442C157.916 105.361 158.312 105.321 158.708 105.321C159.427 105.321 159.955 105.467 160.292 105.761C160.637 106.054 160.809 106.512 160.809 107.136V111.085H159.753ZM158.235 110.326C158.448 110.326 158.671 110.282 158.906 110.194C159.141 110.098 159.368 109.966 159.588 109.798V108.742C159.199 108.661 158.855 108.621 158.554 108.621C157.791 108.621 157.41 108.918 157.41 109.512C157.41 109.768 157.483 109.97 157.63 110.117C157.777 110.256 157.978 110.326 158.235 110.326ZM164.892 109.567C164.892 109.405 164.841 109.277 164.738 109.182C164.636 109.079 164.445 108.976 164.166 108.874L163.253 108.522C162.432 108.206 162.021 107.693 162.021 106.982C162.021 106.468 162.212 106.065 162.593 105.772C162.975 105.471 163.484 105.321 164.122 105.321C164.731 105.321 165.281 105.438 165.772 105.673V106.586C165.2 106.402 164.676 106.311 164.199 106.311C163.862 106.311 163.613 106.362 163.451 106.465C163.297 106.56 163.22 106.714 163.22 106.927C163.22 107.088 163.275 107.22 163.385 107.323C163.503 107.418 163.708 107.524 164.001 107.642L164.848 107.972C165.288 108.14 165.604 108.342 165.794 108.577C165.992 108.811 166.091 109.108 166.091 109.468C166.091 110.018 165.893 110.454 165.497 110.777C165.101 111.092 164.551 111.25 163.847 111.25C163.503 111.25 163.165 111.213 162.835 111.14C162.505 111.066 162.216 110.964 161.966 110.832V109.919C162.67 110.146 163.294 110.26 163.836 110.26C164.203 110.26 164.471 110.205 164.639 110.095C164.808 109.977 164.892 109.801 164.892 109.567ZM170.398 110.953C170.017 111.092 169.606 111.162 169.166 111.162C168.587 111.162 168.158 111.026 167.879 110.755C167.6 110.483 167.461 110.069 167.461 109.512V106.476H166.515V105.662L167.505 105.519L167.703 103.946H168.759V105.486H170.354V106.476H168.759V109.446C168.759 109.695 168.818 109.875 168.935 109.985C169.06 110.087 169.265 110.139 169.551 110.139C169.859 110.139 170.141 110.109 170.398 110.051V110.953ZM170.981 108.797V107.686H174.347V108.797H170.981ZM177.972 111.085V104.76L175.915 105.53V104.474L178.093 103.462H179.281V111.085H177.972ZM181.469 112.669C181.924 111.965 182.269 111.195 182.503 110.359C182.738 109.515 182.855 108.639 182.855 107.73C182.855 106.82 182.738 105.948 182.503 105.112C182.269 104.268 181.924 103.495 181.469 102.791H182.712C183.196 103.495 183.567 104.272 183.823 105.123C184.087 105.973 184.219 106.842 184.219 107.73C184.219 108.617 184.087 109.486 183.823 110.337C183.567 111.187 183.196 111.965 182.712 112.669H181.469Z" fill="#A89EB3"/>
<path d="M140.264 87.856C140.704 87.9807 141.115 88.043 141.496 88.043C141.929 88.043 142.237 87.9367 142.42 87.724C142.603 87.5113 142.695 87.1593 142.695 86.668V81.377H144.037V86.646C144.037 87.482 143.835 88.1163 143.432 88.549C143.036 88.9743 142.446 89.187 141.661 89.187C141.214 89.187 140.748 89.0953 140.264 88.912V87.856ZM149.452 89L149.32 88.384C148.631 88.9047 147.945 89.165 147.263 89.165C146.743 89.165 146.339 89.022 146.053 88.736C145.775 88.4427 145.635 88.0247 145.635 87.482V83.401H146.933V87.097C146.933 87.4563 147.007 87.7203 147.153 87.889C147.3 88.0577 147.535 88.142 147.857 88.142C148.312 88.142 148.77 87.9917 149.232 87.691V83.401H150.53V89H149.452ZM154.303 88.912C154.032 89.0147 153.742 89.066 153.434 89.066C153.002 89.066 152.672 88.945 152.444 88.703C152.224 88.4537 152.114 88.0943 152.114 87.625V80.86H153.412V87.526C153.412 87.7093 153.445 87.8413 153.511 87.922C153.585 88.0027 153.702 88.043 153.863 88.043C153.995 88.043 154.142 88.032 154.303 88.01V88.912ZM156.897 89.066L154.708 83.401H156.094L157.513 87.834L158.954 83.401H160.285L157.777 89.891C157.572 90.4263 157.33 90.8113 157.051 91.046C156.772 91.2807 156.409 91.398 155.962 91.398C155.632 91.398 155.324 91.343 155.038 91.233V90.331C155.214 90.3677 155.401 90.386 155.599 90.386C155.914 90.386 156.149 90.3273 156.303 90.21C156.457 90.1 156.607 89.847 156.754 89.451L156.897 89.066ZM163.928 89V88.01C164.94 86.9833 165.684 86.195 166.161 85.645C166.638 85.095 166.968 84.6513 167.151 84.314C167.334 83.9767 167.426 83.665 167.426 83.379C167.426 83.0417 167.327 82.7813 167.129 82.598C166.931 82.4073 166.652 82.312 166.293 82.312C165.978 82.312 165.633 82.3853 165.259 82.532C164.892 82.6713 164.518 82.873 164.137 83.137V82.059C164.841 81.487 165.618 81.201 166.469 81.201C166.931 81.201 167.334 81.2853 167.679 81.454C168.024 81.6153 168.291 81.85 168.482 82.158C168.68 82.466 168.779 82.8327 168.779 83.258C168.779 83.6687 168.669 84.0867 168.449 84.512C168.236 84.93 167.888 85.4103 167.404 85.953C166.927 86.4883 166.267 87.1557 165.424 87.955H169.12V89H163.928ZM173.252 89V88.01C174.264 86.9833 175.009 86.195 175.485 85.645C175.962 85.095 176.292 84.6513 176.475 84.314C176.659 83.9767 176.75 83.665 176.75 83.379C176.75 83.0417 176.651 82.7813 176.453 82.598C176.255 82.4073 175.977 82.312 175.617 82.312C175.302 82.312 174.957 82.3853 174.583 82.532C174.217 82.6713 173.843 82.873 173.461 83.137V82.059C174.165 81.487 174.943 81.201 175.793 81.201C176.255 81.201 176.659 81.2853 177.003 81.454C177.348 81.6153 177.616 81.85 177.806 82.158C178.004 82.466 178.103 82.8327 178.103 83.258C178.103 83.6687 177.993 84.0867 177.773 84.512C177.561 84.93 177.212 85.4103 176.728 85.953C176.252 86.4883 175.592 87.1557 174.748 87.955H178.444V89H173.252ZM182.239 88.087C182.759 88.087 183.137 87.856 183.372 87.394C183.614 86.932 183.735 86.195 183.735 85.183C183.735 84.171 183.614 83.434 183.372 82.972C183.137 82.51 182.759 82.279 182.239 82.279C181.718 82.279 181.337 82.51 181.095 82.972C180.86 83.434 180.743 84.171 180.743 85.183C180.743 86.195 180.86 86.932 181.095 87.394C181.337 87.856 181.718 88.087 182.239 88.087ZM182.239 89.165C181.329 89.165 180.629 88.824 180.138 88.142C179.654 87.4527 179.412 86.4663 179.412 85.183C179.412 83.8997 179.654 82.917 180.138 82.235C180.629 81.5457 181.329 81.201 182.239 81.201C183.148 81.201 183.845 81.5457 184.329 82.235C184.82 82.917 185.066 83.8997 185.066 85.183C185.066 86.4663 184.82 87.4527 184.329 88.142C183.845 88.824 183.148 89.165 182.239 89.165ZM186.143 89V88.01C187.155 86.9833 187.899 86.195 188.376 85.645C188.853 85.095 189.183 84.6513 189.366 84.314C189.549 83.9767 189.641 83.665 189.641 83.379C189.641 83.0417 189.542 82.7813 189.344 82.598C189.146 82.4073 188.867 82.312 188.508 82.312C188.193 82.312 187.848 82.3853 187.474 82.532C187.107 82.6713 186.733 82.873 186.352 83.137V82.059C187.056 81.487 187.833 81.201 188.684 81.201C189.146 81.201 189.549 81.2853 189.894 81.454C190.239 81.6153 190.506 81.85 190.697 82.158C190.895 82.466 190.994 82.8327 190.994 83.258C190.994 83.6687 190.884 84.0867 190.664 84.512C190.451 84.93 190.103 85.4103 189.619 85.953C189.142 86.4883 188.482 87.1557 187.639 87.955H191.335V89H186.143ZM195.811 89V87.416H192.203V86.437L195.756 81.377H196.988V86.382H198.011V87.416H196.988V89H195.811ZM195.811 86.382V83.027L193.468 86.382H195.811Z" fill="#A89EB3"/>
<defs>
<filter id="filter0_d_388_71" x="2.83643" y="14.8079" width="580.105" height="338.192" filterUnits="userSpaceOnUse" color-interpolation-filters="sRGB">
<feFlood flood-opacity="0" result="BackgroundImageFix"/>
<feColorMatrix in="SourceAlpha" type="matrix" values="0 0 0 0 0 0 0 0 0 0 0 0 0 0 0 0 0 0 127 0" result="hardAlpha"/>
<feOffset/>
<feGaussianBlur stdDeviation="12.5"/>
<feComposite in2="hardAlpha" operator="out"/>
<feColorMatrix type="matrix" values="0 0 0 0 0.545098 0 0 0 0 0.541176 0 0 0 0 0.541176 0 0 0 0.2 0"/>
<feBlend mode="normal" in2="BackgroundImageFix" result="effect1_dropShadow_388_71"/>
<feBlend mode="normal" in="SourceGraphic" in2="effect1_dropShadow_388_71" result="shape"/>
</filter>
<linearGradient id="paint0_linear_388_71" x1="223.621" y1="0.973389" x2="436.174" y2="304.288" gradientUnits="userSpaceOnUse">
<stop stop-color="#D2D4F9"/>
<stop offset="1" stop-color="#C7E4FF"/>
</linearGradient>
<linearGradient id="paint1_linear_388_71" x1="67.6299" y1="219.056" x2="524.887" y2="219.056" gradientUnits="userSpaceOnUse">
<stop stop-color="#3418DD"/>
<stop offset="1" stop-color="#6719E6"/>
</linearGradient>
</defs>
</svg>
